<svg id="f2970b1c-6dde-4cd6-b114-1ececa070b2b" data-name="logo" xmlns="http://www.w3.org/2000/svg" xmlns:xlink="http://www.w3.org/1999/xlink" viewBox="0 0 436.22 96.81"><defs><linearGradient id="b71ec845-af7b-477c-be55-8c7a68a3ff8f" x1="-0.23" y1="44.13" x2="77.68" y2="44.13" gradientTransform="translate(0.1 0.14) rotate(-0.15)" gradientUnits="userSpaceOnUse"><stop offset="0" stop-color="#d74228"/><stop offset="0.25" stop-color="#db226a"/><stop offset="0.5" stop-color="#a94796"/><stop offset="0.75" stop-color="#5861ab"/><stop offset="1" stop-color="#2474bb"/></linearGradient></defs><path d="M66.57,76.85a39,39,0,0,0-.14-55.09L48.59,4a13.8,13.8,0,0,0-19.5,0L11.34,21.91A39,39,0,1,0,66.57,76.85" transform="translate(0 0)" style="fill:url(#b71ec845-af7b-477c-be55-8c7a68a3ff8f)"/><path d="M64.8,44.11a3.15,3.15,0,1,0-6.29,0V45A2.3,2.3,0,0,1,54,44.85l0-15.52a3.14,3.14,0,0,0-6.28,0v5.82a2.29,2.29,0,0,1-4.51-.44l0-8.51a3.16,3.16,0,0,0-3.15-3.14h0a3.17,3.17,0,0,0-3.14,3.15L37,58.06a2.27,2.27,0,0,1-2.29,2.2,2.3,2.3,0,0,1-2.23-1.7l-.07-29.5a3.15,3.15,0,1,0-6.29,0l.05,19.21a2.3,2.3,0,0,1-4.47.2V44.22a3.15,3.15,0,0,0-6.29,0l0,11.36a3.15,3.15,0,1,0,6.29,0v-2a2.31,2.31,0,0,1,4.48.17l0,15a3.15,3.15,0,0,0,6.29,0V63.73A2.29,2.29,0,0,1,37,64.2l0,7.38a3.15,3.15,0,1,0,6.29,0l-.08-30.74a2.3,2.3,0,0,1,4.51-.47L47.82,69a3.15,3.15,0,0,0,6.29,0l0-18.66a2.29,2.29,0,0,1,4.46-.19l0,5.38a3.14,3.14,0,0,0,6.28,0Z" transform="translate(0 0)" style="fill:#424142"/><path d="M63.64,44.7a3.15,3.15,0,1,0-6.29,0v1a2.34,2.34,0,0,1-4.46-.13l0-15.66a3.15,3.15,0,1,0-6.29,0v5.94a2.34,2.34,0,0,1-4.51-.2l0-8.86a3.15,3.15,0,1,0-6.29,0L35.84,59a2.34,2.34,0,0,1-4.51.26l-.08-29.61a3.15,3.15,0,0,0-6.29,0L25,49a2.35,2.35,0,0,1-4.47.16V44.81a3.15,3.15,0,0,0-6.29,0l0,11.36a3.15,3.15,0,0,0,6.29,0V54.08a2.34,2.34,0,0,1,4.47.13l0,15.17a3.14,3.14,0,1,0,6.28,0V64.2a2.34,2.34,0,0,1,4.51.24l0,7.73a3.15,3.15,0,0,0,6.29,0l-.08-31.1a2.35,2.35,0,0,1,4.51-.22l.07,28.74a3.15,3.15,0,0,0,6.29,0L52.9,50.74a2.35,2.35,0,0,1,4.47-.16v5.5a3.15,3.15,0,0,0,6.29,0Z" transform="translate(0 0)" style="fill:#fff"/><text transform="translate(92.24 72.3)" style="font-size:75.48240661621094px;fill:#1c1c1c;font-family:ArialMT, Arial"><tspan style="letter-spacing:-0.1108365685799853em">T</tspan><tspan x="37.74" y="0">orchEEG</tspan></text></svg>