<svg id="b862a984-7a58-4e4b-8ec4-c6f587fa0a61" data-name="logo" xmlns="http://www.w3.org/2000/svg" xmlns:xlink="http://www.w3.org/1999/xlink" viewBox="0 0 77.91 88.34"><defs><linearGradient id="ab9bdf13-c40e-4308-bf32-87dcb698fab8" x1="-0.23" y1="44.67" x2="77.68" y2="44.67" gradientTransform="translate(0.1 -0.4) rotate(-0.15)" gradientUnits="userSpaceOnUse"><stop offset="0" stop-color="#d74228"/><stop offset="0.25" stop-color="#db226a"/><stop offset="0.5" stop-color="#a94796"/><stop offset="0.75" stop-color="#5861ab"/><stop offset="1" stop-color="#2474bb"/></linearGradient></defs><path d="M66.57,76.85a39,39,0,0,0-.14-55.09L48.59,4a13.8,13.8,0,0,0-19.5,0L11.34,21.91A39,39,0,1,0,66.57,76.85" transform="translate(0 0)" style="fill:url(#ab9bdf13-c40e-4308-bf32-87dcb698fab8)"/><path d="M64.8,44.11a3.15,3.15,0,1,0-6.29,0V45A2.3,2.3,0,0,1,54,44.85l0-15.52a3.14,3.14,0,0,0-6.28,0v5.82a2.29,2.29,0,0,1-4.51-.44l0-8.51a3.15,3.15,0,1,0-6.29,0L37,58.06a2.27,2.27,0,0,1-2.29,2.2,2.3,2.3,0,0,1-2.23-1.7l-.07-29.5a3.15,3.15,0,1,0-6.29,0l.05,19.21a2.3,2.3,0,0,1-4.47.2V44.22a3.15,3.15,0,0,0-6.29,0l0,11.36a3.15,3.15,0,1,0,6.29,0v-2a2.3,2.3,0,0,1,4.48.18l0,15a3.15,3.15,0,0,0,3.16,3.13h0a3.15,3.15,0,0,0,3.13-3.15V63.73A2.29,2.29,0,0,1,37,64.2l0,7.38a3.15,3.15,0,1,0,6.29,0l-.08-30.74a2.3,2.3,0,0,1,4.51-.47L47.82,69a3.15,3.15,0,0,0,6.29,0l0-18.66a2.29,2.29,0,0,1,4.46-.19l0,5.38a3.14,3.14,0,0,0,6.28,0Z" transform="translate(0 0)" style="fill:#424142"/><path d="M63.64,44.7a3.15,3.15,0,1,0-6.29,0v.89a2.29,2.29,0,0,1-4.46-.16l0-15.52a3.15,3.15,0,1,0-6.29,0v5.83a2.29,2.29,0,0,1-4.51-.44l0-8.51a3.15,3.15,0,1,0-6.29,0l.09,31.83a2.3,2.3,0,0,1-4.51.5l-.08-29.5a3.16,3.16,0,0,0-3.15-3.14h0A3.16,3.16,0,0,0,25,29.66L25,48.88a2.3,2.3,0,0,1-4.47.2V44.81a3.15,3.15,0,0,0-6.29,0l0,11.36a3.15,3.15,0,0,0,6.29,0v-2a2.3,2.3,0,0,1,4.47.17l0,15a3.14,3.14,0,1,0,6.28,0V64.31a2.29,2.29,0,0,1,4.51.48l0,7.38a3.15,3.15,0,0,0,6.29,0l-.08-30.74a2.29,2.29,0,0,1,4.51-.47l.07,28.63a3.15,3.15,0,0,0,6.29,0L52.9,50.89a2.3,2.3,0,0,1,4.47-.19v5.38a3.15,3.15,0,0,0,6.29,0Z" transform="translate(0 0)" style="fill:#fff"/></svg>